<?xml version="1.0" encoding="UTF-8"?> <svg xmlns="http://www.w3.org/2000/svg" width="30" height="30" viewBox="0 0 30 30" fill="none"> <path d="M16.543 23.7692C16.4994 23.7256 16.4648 23.6739 16.4412 23.617C16.4177 23.5601 16.4055 23.4991 16.4055 23.4375C16.4055 23.3759 16.4177 23.3149 16.4412 23.258C16.4648 23.2011 16.4994 23.1494 16.543 23.1059L24.1801 15.4688L4.68713 15.4688C4.56281 15.4688 4.44358 15.4194 4.35567 15.3315C4.26777 15.2436 4.21838 15.1243 4.21838 15C4.21838 14.8757 4.26777 14.7565 4.35567 14.6686C4.44358 14.5807 4.56281 14.5313 4.68713 14.5313L24.1801 14.5313L16.543 6.89416C16.4994 6.85061 16.4649 6.7989 16.4413 6.742C16.4178 6.6851 16.4056 6.62411 16.4056 6.56252C16.4056 6.50093 16.4178 6.43994 16.4413 6.38303C16.4649 6.32613 16.4994 6.27443 16.543 6.23088C16.5865 6.18732 16.6382 6.15278 16.6951 6.12921C16.7521 6.10564 16.813 6.09351 16.8746 6.09351C16.9362 6.09351 16.9972 6.10564 17.0541 6.12921C17.111 6.15278 17.1627 6.18732 17.2063 6.23088L25.6438 14.6684C25.6874 14.7119 25.7219 14.7636 25.7455 14.8205C25.7691 14.8774 25.7813 14.9384 25.7813 15C25.7813 15.0616 25.7691 15.1226 25.7455 15.1795C25.7219 15.2364 25.6874 15.2881 25.6438 15.3317L17.2063 23.7692C17.1627 23.8127 17.111 23.8473 17.0541 23.8709C16.9972 23.8945 16.9362 23.9066 16.8746 23.9066C16.813 23.9066 16.752 23.8945 16.6951 23.8709C16.6382 23.8473 16.5865 23.8127 16.543 23.7692Z" fill="#1C1A19"></path> </svg> 