<?xml version="1.0" encoding="UTF-8"?> <svg xmlns="http://www.w3.org/2000/svg" width="38" height="38" viewBox="0 0 38 38" fill="none"> <rect width="38" height="38" rx="11" fill="#1B1B1B"></rect> <path d="M24.7196 19.8759L19.9384 24.6571C19.8387 24.7568 19.7035 24.8128 19.5625 24.8128C19.4215 24.8128 19.2863 24.7568 19.1866 24.6571C19.087 24.5574 19.031 24.4222 19.031 24.2812C19.031 24.1403 19.087 24.0051 19.1866 23.9054L23.0614 20.0312H12.6562C12.5154 20.0312 12.3802 19.9753 12.2806 19.8756C12.181 19.776 12.125 19.6409 12.125 19.5C12.125 19.3591 12.181 19.224 12.2806 19.1243C12.3802 19.0247 12.5154 18.9687 12.6562 18.9687H23.0614L19.1866 15.0946C19.087 14.9949 19.031 14.8597 19.031 14.7187C19.031 14.5778 19.087 14.4426 19.1866 14.3429C19.2863 14.2432 19.4215 14.1872 19.5625 14.1872C19.7035 14.1872 19.8387 14.2432 19.9384 14.3429L24.7196 19.1241C24.769 19.1735 24.8082 19.2321 24.8349 19.2966C24.8617 19.3611 24.8754 19.4302 24.8754 19.5C24.8754 19.5698 24.8617 19.6389 24.8349 19.7034C24.8082 19.7679 24.769 19.8265 24.7196 19.8759Z" fill="white"></path> </svg> 