<?xml version="1.0" encoding="UTF-8"?> <svg xmlns="http://www.w3.org/2000/svg" width="39" height="38" viewBox="0 0 39 38" fill="none"> <rect x="0.50293" width="38" height="38" rx="11" fill="white"></rect> <path d="M25.2225 19.8759L20.4413 24.6572C20.3416 24.7568 20.2064 24.8128 20.0654 24.8128C19.9245 24.8128 19.7893 24.7568 19.6896 24.6572C19.5899 24.5575 19.5339 24.4223 19.5339 24.2813C19.5339 24.1403 19.5899 24.0051 19.6896 23.9054L23.5644 20.0313H13.1592C13.0183 20.0313 12.8832 19.9753 12.7835 19.8757C12.6839 19.7761 12.6279 19.6409 12.6279 19.5001C12.6279 19.3592 12.6839 19.224 12.7835 19.1244C12.8832 19.0248 13.0183 18.9688 13.1592 18.9688H23.5644L19.6896 15.0947C19.5899 14.995 19.5339 14.8598 19.5339 14.7188C19.5339 14.5778 19.5899 14.4426 19.6896 14.3429C19.7893 14.2433 19.9245 14.1873 20.0654 14.1873C20.2064 14.1873 20.3416 14.2433 20.4413 14.3429L25.2225 19.1242C25.2719 19.1735 25.3111 19.2321 25.3379 19.2966C25.3646 19.3611 25.3783 19.4302 25.3783 19.5001C25.3783 19.5699 25.3646 19.639 25.3379 19.7035C25.3111 19.768 25.2719 19.8266 25.2225 19.8759Z" fill="#101010"></path> </svg> 