<?xml version="1.0" encoding="UTF-8"?> <svg xmlns="http://www.w3.org/2000/svg" width="40" height="40" viewBox="0 0 40 40" fill="none"> <rect width="40" height="40" rx="10" fill="#101010"></rect> <path d="M30.2794 23.7578C30.3602 23.8982 30.3819 24.0649 30.3398 24.2212C30.2978 24.3776 30.1953 24.5109 30.0549 24.5917C29.9146 24.6725 29.7479 24.6942 29.5915 24.6521C29.4352 24.61 29.3019 24.5075 29.2211 24.3672L27.1899 20.8044C25.9887 21.6465 24.6476 22.2685 23.2289 22.6417L23.8556 26.3995C23.8688 26.4784 23.8663 26.5592 23.8483 26.6372C23.8303 26.7153 23.7971 26.789 23.7506 26.8541C23.7041 26.9193 23.6452 26.9747 23.5773 27.0171C23.5094 27.0595 23.4338 27.0881 23.3549 27.1013C23.3212 27.1065 23.2873 27.1092 23.2533 27.1094C23.1094 27.1092 22.9702 27.0582 22.8603 26.9652C22.7505 26.8723 22.677 26.7435 22.6531 26.6016L22.0315 22.8885C20.6856 23.0999 19.3149 23.0999 17.969 22.8885L17.3515 26.6016C17.3275 26.7436 17.2539 26.8726 17.1438 26.9656C17.0338 27.0585 16.8943 27.1095 16.7502 27.1094C16.7162 27.1092 16.6823 27.1065 16.6487 27.1013C16.5697 27.088 16.4941 27.0593 16.4262 27.0167C16.3584 26.9742 16.2996 26.9187 16.2531 26.8534C16.2067 26.7882 16.1737 26.7144 16.1558 26.6363C16.1379 26.5582 16.1356 26.4774 16.149 26.3985L16.7756 22.6406C15.357 22.2675 14.0158 21.6454 12.8147 20.8034L10.7794 24.3672C10.6986 24.5075 10.5653 24.61 10.409 24.6521C10.2526 24.6942 10.0859 24.6725 9.94556 24.5917C9.80522 24.5109 9.70273 24.3776 9.66064 24.2212C9.61854 24.0649 9.64029 23.8982 9.7211 23.7578L11.8387 20.0528C11.0853 19.4171 10.3946 18.7108 9.77595 17.9434C9.6744 17.8176 9.62698 17.6566 9.64412 17.4959C9.66126 17.3351 9.74156 17.1877 9.86735 17.0862C9.99314 16.9846 10.1541 16.9372 10.3149 16.9544C10.4756 16.9715 10.623 17.0518 10.7245 17.1776C12.4379 19.3003 15.437 21.8281 20.0002 21.8281C24.5634 21.8281 27.5626 19.3003 29.2759 17.1796C29.3775 17.0538 29.5249 16.9735 29.6856 16.9564C29.8464 16.9393 30.0073 16.9867 30.1331 17.0882C30.2589 17.1898 30.3392 17.3371 30.3564 17.4979C30.3735 17.6586 30.3261 17.8196 30.2245 17.9454C29.6059 18.7128 28.9152 19.4192 28.1618 20.0549L30.2794 23.7578Z" fill="white"></path> </svg> 