<?xml version="1.0" encoding="UTF-8"?> <svg xmlns="http://www.w3.org/2000/svg" width="40" height="40" viewBox="0 0 40 40" fill="none"> <rect width="40" height="40" rx="10" fill="#101010"></rect> <path d="M29.8069 17.5432C28.6765 16.9277 27.1571 16.4849 25.4844 16.2767V15.5312C25.4844 14.3003 24.5114 13.1852 22.7422 12.3899C21.1334 11.6648 19.0047 11.2656 16.75 11.2656C14.4953 11.2656 12.3666 11.6648 10.7578 12.3899C8.98859 13.1852 8.01562 14.3003 8.01562 15.5312V19.5938C8.01562 20.8247 8.98859 21.9398 10.7578 22.7351C11.8232 23.2145 13.1151 23.5476 14.5156 23.7233V24.4688C14.5156 25.6997 15.4886 26.8148 17.2578 27.6101C18.8666 28.3352 20.9953 28.7344 23.25 28.7344C25.5047 28.7344 27.6334 28.3352 29.2422 27.6101C31.0084 26.8148 31.9844 25.6997 31.9844 24.4688V20.4062C31.9844 19.3246 31.2115 18.308 29.8069 17.5432ZM29.2239 18.6137C30.2182 19.155 30.7656 19.7969 30.7656 20.4062C30.7656 21.8474 27.6791 23.4531 23.25 23.4531C22.5298 23.4536 21.8103 23.4081 21.0959 23.317C21.6589 23.166 22.2093 22.9714 22.7422 22.7351C24.5084 21.9398 25.4844 20.8247 25.4844 19.5938V17.5046C26.9469 17.7006 28.257 18.0866 29.2239 18.6137ZM17.985 22.598C17.5869 22.6254 17.1725 22.6406 16.75 22.6406C16.2117 22.6406 15.6937 22.6163 15.1981 22.5726C15.1856 22.5715 15.1731 22.5715 15.1605 22.5726C14.797 22.5391 14.4496 22.4944 14.1094 22.4405V19.6059C14.9837 19.734 15.8663 19.7979 16.75 19.7969C17.6337 19.7979 18.5163 19.734 19.3906 19.6059V22.4375C18.9498 22.5076 18.4857 22.5614 18.0002 22.5959L17.985 22.598ZM24.2656 17.7545V19.5938C24.2656 20.5627 22.8691 21.6047 20.6094 22.1846V19.3754C21.3412 19.2102 22.0555 18.9748 22.7422 18.6726C23.2884 18.4354 23.8007 18.1266 24.2656 17.7545ZM16.75 12.4844C21.1791 12.4844 24.2656 14.0901 24.2656 15.5312C24.2656 16.9724 21.1791 18.5781 16.75 18.5781C12.3209 18.5781 9.23438 16.9724 9.23438 15.5312C9.23438 14.0901 12.3209 12.4844 16.75 12.4844ZM9.23438 19.5938V17.7545C9.69952 18.1252 10.2118 18.4326 10.7578 18.6685C11.4445 18.9707 12.1588 19.2061 12.8906 19.3713V22.1805C10.6309 21.6047 9.23438 20.5627 9.23438 19.5938ZM15.7344 24.4688V23.8309C16.0695 23.8492 16.4077 23.8594 16.75 23.8594C17.1502 23.8594 17.5449 23.8468 17.9342 23.8218C18.4106 23.9937 18.8969 24.1365 19.3906 24.2494V27.0596C17.1309 26.4797 15.7344 25.4377 15.7344 24.4688ZM20.6094 27.3125V24.4789C21.4837 24.6077 22.3663 24.6722 23.25 24.6719C24.1337 24.6729 25.0163 24.609 25.8906 24.4809V27.3125C24.1406 27.5833 22.3594 27.5833 20.6094 27.3125ZM27.1094 27.0596V24.2504C27.8412 24.0852 28.5555 23.8498 29.2422 23.5476C29.7882 23.3116 30.3005 23.0042 30.7656 22.6335V24.4688C30.7656 25.4377 29.3691 26.4797 27.1094 27.0596Z" fill="white"></path> </svg> 