<?xml version="1.0" encoding="UTF-8"?> <svg xmlns="http://www.w3.org/2000/svg" width="40" height="40" viewBox="0 0 40 40" fill="none"> <rect width="40" height="40" rx="10" fill="#101010"></rect> <path d="M24.875 8.82812H15.125C14.5324 8.82812 13.9641 9.06353 13.5451 9.48256C13.126 9.90158 12.8906 10.4699 12.8906 11.0625V28.9375C12.8906 29.5301 13.126 30.0984 13.5451 30.5174C13.9641 30.9365 14.5324 31.1719 15.125 31.1719H24.875C25.4676 31.1719 26.0359 30.9365 26.4549 30.5174C26.874 30.0984 27.1094 29.5301 27.1094 28.9375V11.0625C27.1094 10.4699 26.874 9.90158 26.4549 9.48256C26.0359 9.06353 25.4676 8.82812 24.875 8.82812ZM14.1094 13.2969H25.8906V26.7031H14.1094V13.2969ZM15.125 10.0469H24.875C25.1444 10.0469 25.4027 10.1539 25.5932 10.3443C25.7836 10.5348 25.8906 10.7931 25.8906 11.0625V12.0781H14.1094V11.0625C14.1094 10.7931 14.2164 10.5348 14.4068 10.3443C14.5973 10.1539 14.8556 10.0469 15.125 10.0469ZM24.875 29.9531H15.125C14.8556 29.9531 14.5973 29.8461 14.4068 29.6557C14.2164 29.4652 14.1094 29.2069 14.1094 28.9375V27.9219H25.8906V28.9375C25.8906 29.2069 25.7836 29.4652 25.5932 29.6557C25.4027 29.8461 25.1444 29.9531 24.875 29.9531Z" fill="white"></path> </svg> 