<?xml version="1.0" encoding="UTF-8"?> <svg xmlns="http://www.w3.org/2000/svg" width="40" height="40" viewBox="0 0 40 40" fill="none"> <rect width="40" height="40" rx="10" fill="#101010"></rect> <path d="M28.9375 16.1406H23.8594V11.0625C23.8594 10.6854 23.7096 10.3237 23.4429 10.0571C23.1763 9.79043 22.8146 9.64062 22.4375 9.64062H17.5625C17.1854 9.64062 16.8237 9.79043 16.5571 10.0571C16.2904 10.3237 16.1406 10.6854 16.1406 11.0625V16.1406H11.0625C10.6854 16.1406 10.3237 16.2904 10.0571 16.5571C9.79043 16.8237 9.64062 17.1854 9.64062 17.5625V22.4375C9.64062 22.8146 9.79043 23.1763 10.0571 23.4429C10.3237 23.7096 10.6854 23.8594 11.0625 23.8594H16.1406V28.9375C16.1406 29.3146 16.2904 29.6763 16.5571 29.9429C16.8237 30.2096 17.1854 30.3594 17.5625 30.3594H22.4375C22.8146 30.3594 23.1763 30.2096 23.4429 29.9429C23.7096 29.6763 23.8594 29.3146 23.8594 28.9375V23.8594H28.9375C29.3146 23.8594 29.6763 23.7096 29.9429 23.4429C30.2096 23.1763 30.3594 22.8146 30.3594 22.4375V17.5625C30.3594 17.1854 30.2096 16.8237 29.9429 16.5571C29.6763 16.2904 29.3146 16.1406 28.9375 16.1406ZM29.1406 22.4375C29.1406 22.4914 29.1192 22.543 29.0811 22.5811C29.043 22.6192 28.9914 22.6406 28.9375 22.6406H23.25C23.0884 22.6406 22.9334 22.7048 22.8191 22.8191C22.7048 22.9334 22.6406 23.0884 22.6406 23.25V28.9375C22.6406 28.9914 22.6192 29.043 22.5811 29.0811C22.543 29.1192 22.4914 29.1406 22.4375 29.1406H17.5625C17.5086 29.1406 17.457 29.1192 17.4189 29.0811C17.3808 29.043 17.3594 28.9914 17.3594 28.9375V23.25C17.3594 23.0884 17.2952 22.9334 17.1809 22.8191C17.0666 22.7048 16.9116 22.6406 16.75 22.6406H11.0625C11.0086 22.6406 10.957 22.6192 10.9189 22.5811C10.8808 22.543 10.8594 22.4914 10.8594 22.4375V17.5625C10.8594 17.5086 10.8808 17.457 10.9189 17.4189C10.957 17.3808 11.0086 17.3594 11.0625 17.3594H16.75C16.9116 17.3594 17.0666 17.2952 17.1809 17.1809C17.2952 17.0666 17.3594 16.9116 17.3594 16.75V11.0625C17.3594 11.0086 17.3808 10.957 17.4189 10.9189C17.457 10.8808 17.5086 10.8594 17.5625 10.8594H22.4375C22.4914 10.8594 22.543 10.8808 22.5811 10.9189C22.6192 10.957 22.6406 11.0086 22.6406 11.0625V16.75C22.6406 16.9116 22.7048 17.0666 22.8191 17.1809C22.9334 17.2952 23.0884 17.3594 23.25 17.3594H28.9375C28.9914 17.3594 29.043 17.3808 29.0811 17.4189C29.1192 17.457 29.1406 17.5086 29.1406 17.5625V22.4375Z" fill="white"></path> </svg> 