<?xml version="1.0" encoding="UTF-8"?> <svg xmlns="http://www.w3.org/2000/svg" width="40" height="40" viewBox="0 0 40 40" fill="none"> <rect width="40" height="40" rx="10" fill="#101010"></rect> <path d="M17.342 25.8348C17.3034 25.9922 16.3528 29.5469 11.0624 29.5469C10.9007 29.5469 10.7457 29.4827 10.6315 29.3684C10.5172 29.2542 10.453 29.0992 10.453 28.9375C10.453 23.6472 14.0138 22.6965 14.1651 22.659C14.3208 22.6229 14.4844 22.6494 14.6207 22.7328C14.757 22.8161 14.8552 22.9497 14.8939 23.1048C14.9327 23.2598 14.909 23.4239 14.8279 23.5616C14.7469 23.6993 14.615 23.7997 14.4606 23.8411C14.3591 23.8686 11.9378 24.5602 11.692 28.3099C15.4844 28.059 16.1527 25.5677 16.1608 25.5413C16.2 25.3844 16.2999 25.2495 16.4386 25.1663C16.5772 25.083 16.7433 25.0583 16.9002 25.0975C17.0571 25.1367 17.192 25.2366 17.2752 25.3752C17.3585 25.5139 17.3832 25.6799 17.344 25.8368L17.342 25.8348ZM26.8411 18.8961L26.2967 19.4394V25.4489C26.2971 25.6355 26.2605 25.8204 26.189 25.9928C26.1176 26.1652 26.0126 26.3217 25.8803 26.4533L22.3917 29.942C22.2051 30.1284 21.9704 30.2593 21.7137 30.3199C21.4571 30.3806 21.1886 30.3687 20.9384 30.2855C20.6881 30.2024 20.4659 30.0513 20.2966 29.8491C20.1272 29.6469 20.0175 29.4016 19.9796 29.1407L19.425 25.1645L14.8385 20.5749L10.8643 20.0204C10.6027 19.9834 10.3566 19.8742 10.1536 19.7051C9.95055 19.536 9.79865 19.3137 9.71491 19.0632C9.63117 18.8126 9.6189 18.5436 9.67949 18.2864C9.74008 18.0293 9.87112 17.7941 10.0579 17.6072L13.5466 14.1186C13.6783 13.9864 13.8348 13.8816 14.0072 13.8103C14.1796 13.739 14.3645 13.7026 14.551 13.7032H20.5605L21.1038 13.1598C23.7556 10.508 26.9508 10.3943 28.201 10.4684C28.547 10.4898 28.8733 10.6368 29.1184 10.8818C29.3636 11.1268 29.5109 11.4529 29.5325 11.7989C29.6067 13.0491 29.4919 16.2422 26.8411 18.8961ZM11.0349 18.8138L14.9085 19.3541L19.3417 14.9219H14.551C14.4972 14.9221 14.4457 14.9437 14.4078 14.9818L10.9202 18.4685C10.8942 18.4946 10.8759 18.5274 10.8671 18.5632C10.8584 18.5989 10.8595 18.6364 10.8704 18.6716C10.8807 18.7089 10.9019 18.7423 10.9311 18.7676C10.9604 18.7929 10.9965 18.809 11.0349 18.8138ZM25.078 20.6582L20.6448 25.0914L21.1851 28.967C21.1907 29.0043 21.2065 29.0393 21.2309 29.0681C21.2552 29.0969 21.2871 29.1183 21.3229 29.13C21.3588 29.1417 21.3972 29.1432 21.4338 29.1343C21.4705 29.1254 21.5039 29.1065 21.5304 29.0797L25.0181 25.5921C25.0562 25.5542 25.0778 25.5027 25.078 25.4489V20.6582ZM28.3158 11.875C28.3119 11.8271 28.291 11.782 28.257 11.748C28.2229 11.714 28.1779 11.6931 28.1299 11.6892C26.9954 11.6164 25.8583 11.7871 24.7952 12.19C23.7321 12.5929 22.7675 13.2186 21.9661 14.0251L15.9871 20L19.9999 24.0128L25.2567 18.7569L25.9788 18.0348C26.785 17.234 27.4106 16.2701 27.8136 15.2077C28.2167 14.1453 28.3879 13.009 28.3158 11.875Z" fill="white"></path> </svg> 