<?xml version="1.0" encoding="UTF-8"?> <svg xmlns="http://www.w3.org/2000/svg" width="40" height="40" viewBox="0 0 40 40" fill="none"> <rect width="40" height="40" rx="10" fill="#101010"></rect> <path d="M20.6092 15.125V19.6547L24.3762 21.9144C24.5149 21.9977 24.6149 22.1326 24.6541 22.2895C24.6933 22.4465 24.6686 22.6126 24.5854 22.7513C24.5021 22.89 24.3672 22.99 24.2103 23.0292C24.0533 23.0685 23.8872 23.0438 23.7485 22.9605L19.686 20.523C19.5957 20.4688 19.5211 20.3921 19.4693 20.3005C19.4175 20.2088 19.3903 20.1053 19.3905 20V15.125C19.3905 14.9634 19.4547 14.8084 19.5689 14.6941C19.6832 14.5798 19.8382 14.5156 19.9998 14.5156C20.1614 14.5156 20.3164 14.5798 20.4307 14.6941C20.545 14.8084 20.6092 14.9634 20.6092 15.125ZM29.7498 12.8906C29.5882 12.8906 29.4332 12.9548 29.3189 13.0691C29.2047 13.1834 29.1405 13.3384 29.1405 13.5V15.8725C28.3808 14.9757 27.6231 14.1327 26.7507 13.2491C25.4238 11.9223 23.7354 11.0159 21.8964 10.6431C20.0573 10.2704 18.1492 10.4479 16.4105 11.1534C14.6717 11.8589 13.1794 13.0612 12.1201 14.61C11.0607 16.1588 10.4813 17.9855 10.4541 19.8617C10.427 21.7379 10.9534 23.5806 11.9675 25.1594C12.9816 26.7382 14.4385 27.9831 16.1561 28.7386C17.8738 29.4941 19.7759 29.7267 21.625 29.4073C23.474 29.0879 25.188 28.2307 26.5526 26.9428C26.6662 26.8309 26.7313 26.679 26.7341 26.5196C26.737 26.3603 26.6772 26.2061 26.5678 26.0903C26.4583 25.9744 26.3078 25.9061 26.1485 25.8999C25.9893 25.8937 25.8339 25.9502 25.7158 26.0572C24.525 27.1802 23.0298 27.9274 21.4168 28.2055C19.8039 28.4836 18.1447 28.2802 16.6467 27.6208C15.1486 26.9614 13.8781 25.8752 12.9938 24.4979C12.1095 23.1206 11.6506 21.5133 11.6746 19.8767C11.6985 18.2401 12.2041 16.6469 13.1283 15.296C14.0525 13.9451 15.3543 12.8965 16.8709 12.2812C18.3876 11.6659 20.052 11.5112 21.6561 11.8363C23.2603 12.1614 24.7331 12.952 25.8905 14.1094C26.8289 15.06 27.6353 15.968 28.461 16.9531H25.6873C25.5257 16.9531 25.3707 17.0173 25.2564 17.1316C25.1422 17.2459 25.078 17.4009 25.078 17.5625C25.078 17.7241 25.1422 17.8791 25.2564 17.9934C25.3707 18.1077 25.5257 18.1719 25.6873 18.1719H29.7498C29.9114 18.1719 30.0664 18.1077 30.1807 17.9934C30.295 17.8791 30.3592 17.7241 30.3592 17.5625V13.5C30.3592 13.3384 30.295 13.1834 30.1807 13.0691C30.0664 12.9548 29.9114 12.8906 29.7498 12.8906Z" fill="#FAFAFA"></path> </svg> 