<?xml version="1.0" encoding="UTF-8"?> <svg xmlns="http://www.w3.org/2000/svg" width="25" height="25" viewBox="0 0 25 25" fill="none"> <path d="M17.4194 14.646C17.1533 14.5093 15.8276 13.8599 15.5811 13.772C15.3345 13.6792 15.1538 13.6353 14.9756 13.9087C14.7949 14.1797 14.2822 14.7827 14.1211 14.9658C13.9648 15.1465 13.8062 15.1685 13.54 15.0342C11.958 14.2432 10.9204 13.623 9.87793 11.8335C9.60205 11.3574 10.1538 11.3916 10.6689 10.3638C10.7568 10.1831 10.7129 10.0293 10.6445 9.89258C10.5762 9.75586 10.0391 8.43262 9.81445 7.89307C9.59717 7.36816 9.37256 7.44141 9.20898 7.43164C9.05273 7.42187 8.87451 7.42188 8.69385 7.42188C8.51318 7.42188 8.22266 7.49023 7.97607 7.75635C7.72949 8.02734 7.03369 8.6792 7.03369 10.0024C7.03369 11.3257 7.99805 12.6074 8.12988 12.7881C8.2666 12.9687 10.0269 15.6836 12.7295 16.853C14.4385 17.5903 15.1074 17.6538 15.9619 17.5269C16.4819 17.4487 17.5537 16.8774 17.7759 16.2451C17.998 15.6152 17.998 15.0757 17.9321 14.9634C17.8662 14.8438 17.6855 14.7754 17.4194 14.646Z" fill="#101010"></path> <path d="M22.588 8.26172C22.0363 6.95068 21.2453 5.77393 20.237 4.76318C19.2287 3.75488 18.0519 2.96143 16.7384 2.41211C15.3956 1.84814 13.9699 1.5625 12.5001 1.5625H12.4513C10.9718 1.56982 9.53871 1.86279 8.19106 2.43896C6.88979 2.99561 5.7228 3.78662 4.72426 4.79492C3.72572 5.80322 2.94203 6.9751 2.40004 8.28125C1.83852 9.63379 1.55531 11.0718 1.56264 12.5513C1.56996 14.2456 1.97524 15.9277 2.73451 17.4316V21.1426C2.73451 21.7627 3.23744 22.2656 3.85756 22.2656H7.57094C9.07485 23.0249 10.757 23.4302 12.4513 23.4375H12.5026C13.965 23.4375 15.3834 23.1543 16.7189 22.6001C18.025 22.0557 19.1994 21.2744 20.2052 20.2759C21.2135 19.2773 22.007 18.1104 22.5612 16.8091C23.1373 15.4614 23.4303 14.0283 23.4376 12.5488C23.445 11.062 23.1569 9.61914 22.588 8.26172ZM18.8991 18.9551C17.1876 20.6494 14.9171 21.582 12.5001 21.582H12.4586C10.9865 21.5747 9.52406 21.2085 8.23256 20.52L8.02748 20.4102H4.58998V16.9727L4.48012 16.7676C3.79164 15.4761 3.42543 14.0137 3.41811 12.5415C3.40834 10.1074 4.33852 7.82227 6.04506 6.10107C7.74916 4.37988 10.027 3.42773 12.4611 3.41797H12.5026C13.7233 3.41797 14.9074 3.65478 16.0231 4.12353C17.112 4.58008 18.0885 5.23682 18.9284 6.07666C19.7658 6.91406 20.4249 7.89307 20.8815 8.98193C21.3551 10.1099 21.5919 11.3062 21.5871 12.5415C21.5724 14.9731 20.6178 17.251 18.8991 18.9551Z" fill="#101010"></path> </svg> 